<?xml version="1.0" encoding="UTF-8"?>
<svg id="Layer_2" data-name="Layer 2" xmlns="http://www.w3.org/2000/svg" viewBox="0 0 1147.95 208.87">
  <defs>
    <style>
      .cls-1 {
        fill: #fff;
      }

      .cls-2 {
        font-family: PerpetuaTitlingMT-Light, 'Perpetua Titling MT';
        font-size: 188.32px;
        font-weight: 300;
      }

      .cls-2, .cls-3 {
        fill: #606060;
      }

      .cls-4 {
        letter-spacing: -.02em;
      }

      .cls-5 {
        fill: red;
      }
    </style>
  </defs>
  <g id="Layer_1-2" data-name="Layer 1">
    <g>
      <text class="cls-2" transform="translate(228.58 164.36)"><tspan x="0" y="0">CarLif</tspan><tspan class="cls-4" x="635.5" y="0">t</tspan><tspan x="756.42" y="0">o</tspan></text>
      <g>
        <path class="cls-5" d="m107.07,17.2c-48.18,0-87.24,39.05-87.24,87.24s39.05,87.24,87.24,87.24,87.24-39.05,87.24-87.24S155.26,17.2,107.07,17.2Zm0,148.98c-34.1,0-61.74-27.64-61.74-61.74s27.64-61.74,61.74-61.74,61.74,27.64,61.74,61.74-27.64,61.74-61.74,61.74Z"/>
        <g>
          <path class="cls-3" d="m95.62,38.28c-1.62,1.63-3,3.38-4.13,5.24,9.23,14.92,14.48,37.31,15.22,57.98.06-.03.13-.06.19-.1.82-21.93-3.02-45.85-11.28-63.13Zm104.76,54.46c23.62-25.68-14.25-57.79-44.68-69.02-4.74-34.09-51.51-26-79.58-9.37C42.98-4.18,19.92,47.76,17.03,80.68c-33.49,13.98-11.47,57.16,13.73,79.37-7.74,32.99,38.37,42.86,70.36,38.02,20.31,27.04,57.47-1.93,74.3-29.51,33.53,1.58,35.2-45.28,24.96-75.82ZM91.84,11.44c37.66-11.66,62.99,5.55,51.59,40.65-5.59,18-21.02,37.81-36.61,51.42,1.25-29.94-4.95-69.09-27.94-87.34,4.32-1.86,8.65-3.45,12.97-4.73Zm71.06,167.02c-20.54,19.93-42.63,25.95-56.67,8.2-15.1-22.06-9.4-55.82.4-82.79,14.33,29.49,37.01,58.52,65.52,64.33-2.94,3.67-6.03,7.1-9.25,10.26Zm20.75-24.13c-.79.43-1.6.82-2.43,1.15h0c-28.59,9.98-60.03-25.53-74.57-51.63t0,.01h0c-12.64,27.69-21.42,65.77-7.32,91.46-25.33,1.02-54.08-7.86-56.99-28.27-3.18-29.62,35.91-53.39,64.19-63.29-31.55,8.96-63.94,26.17-74.8,53.13-17.37-19.11-28.52-46.63-15.04-61.74h0c7.43-8.11,16.77-10.48,29.31-10.75,20.17.04,41.88,8.19,60.5,19.16-24.08-16.62-59.39-32-87.37-23.65,4.81-25.52,22.04-59.04,45.61-56.67h0c11.85,1.41,19.63,8.93,26.77,20.26,9.55,15.39,14.82,38.91,15.28,60.03.01-.01.02-.02.04-.03,0,.01,0,.02,0,.03,23.87-18.38,49.29-47.64,49.13-76.84,25.38,12.56,51.2,39.38,33.68,61.39-17.96,20.25-53.95,20.77-82.83,15.71,0,0,0,.02,0,.02,30.01,7.7,68.57,9.44,91.2-8.83,5.11,23.52,1.79,51.08-14.34,59.31Zm-78.83-51.89c-16.49-11.31-36.92-20.46-54.81-23.53.68,2.06,1.63,4,2.86,5.81,17.08,1.38,37.45,9.17,53.61,18.85-.55-.38-1.1-.76-1.66-1.14Zm9.92-5.31c-.9.54-1.81,1.06-2.71,1.55-1.69,1.64-3.44,3.25-5.21,4.83.03-.7.06-1.4.08-2.11-.06.04-.13.07-.19.1.02.68.05,1.37.07,2.05.01-.01.02-.02.04-.03,0,.01,0,.02,0,.03,2.71-2.06,5.36-4.21,7.93-6.42Z"/>
          <path class="cls-3" d="m99.24,98.81s3.79-28.75.36-37.58c-3.43-8.83,3.71,0,3.71,0,0,0,11.18,33.47,11.43,34.78.25,1.31-7.93,7.51-7.93,7.51l-7.57-4.71Z"/>
          <path class="cls-3" d="m102.29,93.6s25.77-13.3,31.07-21.15c5.29-7.86,2.12,3.04,2.12,3.04,0,0-21.1,28.28-22.03,29.23s-10.69-2.22-10.69-2.22l-.46-8.9Z"/>
          <path class="cls-3" d="m114,93.04s25.99,12.87,35.45,12.47c9.47-.4-1.2,3.51-1.2,3.51,0,0-35.29-.22-36.61-.41s-4.55-9.93-4.55-9.93l6.9-5.65Z"/>
          <path class="cls-3" d="m117.31,100.39s6.87,28.17,13.26,35.17c6.39,6.99-3.46,1.34-3.46,1.34,0,0-22.54-27.16-23.24-28.28s4.67-9.87,4.67-9.87l8.76,1.65Z"/>
          <path class="cls-3" d="m117.67,109.98s-17.93,22.79-19.49,32.14c-1.56,9.35-3.19-1.89-3.19-1.89,0,0,7.46-34.49,7.92-35.74s10.65-2.41,10.65-2.41l4.11,7.91Z"/>
          <path class="cls-3" d="m105.45,113.38s-28.71,4.08-36.29,9.76c-7.58,5.68-1-3.57-1-3.57,0,0,29.23-19.77,30.42-20.36s9.37,5.61,9.37,5.61l-2.5,8.56Z"/>
          <path class="cls-3" d="m99.5,110.96s-20.65-20.36-29.76-22.95c-9.11-2.59,2.24-2.96,2.24-2.96,0,0,33.44,11.27,34.63,11.86s1.21,10.85,1.21,10.85l-8.32,3.2Z"/>
          <polygon class="cls-1" points="111.05 107.39 106.91 108.47 103.48 105.91 103.34 101.63 106.6 98.85 110.81 99.67 112.79 103.47 111.05 107.39"/>
        </g>
      </g>
    </g>
  </g>
</svg>